# xmcd CD database file
#
# Track frame offsets:
#	150
#	17467
#	33760
#	49514
#
# Disc length: 889 seconds
#
# Revision: 1
# Processed by: cddbd v1.5.2PL0 Copyright (c) Steve Scherf et al.
# Submitted via: CDex 1.70beta3
#
DISCID=1e037704
DTITLE=Cveta Majtanovic - Nisam ista
DYEAR=2004
DGENRE=Pop
TTITLE0=Nisam ista
TTITLE1=Stop
TTITLE2=Hot stuff
TTITLE3=Things are going my way
EXTD=YEAR: 2004
EXTT0=
EXTT1=
EXTT2=
EXTT3=
PLAYORDER=
